# xmcd
#
# Track frame offsets:
#	150
#	13324
#	26331
#	38088
#	48423
#	61481
#	76690
#	89307
#	102161
#	114803
#	128884
#	143888
#	157500
#	165075
#	173711
#	188782
#	200481
#	209516
#	218434
#	227377
#	241576
#	251658
#	260486
#	269374
#
# Disc length: 3755 seconds
#
# Revision: 0
# Processed by: cddbd v1.4PL0 Copyright (c) Steve Scherf et al.
# Submitted via: MusicWizard 6.0.1
#
DISCID=2b0ea918
DTITLE=Lester Flatt and Nashville Grass featuring Marty Stuart - Pickin' Time (CMH 6226) and Fantast
DTITLE=ic Pickin' (CMH 6232)
DYEAR=1979
DGENRE=Bluegrass
TTITLE0=It's Pickin' Time
TTITLE1=Goin' Up On Black Mountain
TTITLE2=I Love You Until I Am Dizzy
TTITLE3=Bluegrass Shuffle
TTITLE4=Cabin On The Hill
TTITLE5=We Don't Care What Mama Allow
TTITLE6=Uncle Billy Play Your Fiddle For Me
TTITLE7=If You Ain't Tried It, Don't Knock It
TTITLE8=I'll Be All Smiles Tonight
TTITLE9=On My Mind
TTITLE10=Auction Sale
TTITLE11=Little Brown Church (In The White Oak Grove)
TTITLE12=Roanoke
TTITLE13=Cannonball Blues
TTITLE14=When It's Lamplighting Time In The Valley
TTITLE15=Two In The Morning
TTITLE16=The Old Spinning Wheel
TTITLE17=Peacock Rag
TTITLE18=Drive Time
TTITLE19=In The Garden
TTITLE20=Nashville Wagoner
TTITLE21=When I Saw Sweet Nellie Home
TTITLE22=Fiddlin' Cricket
TTITLE23=The Last Waltz
EXTD=Produced by Arthur Smith
EXTT0=
EXTT1=
EXTT2=
EXTT3=
EXTT4=
EXTT5=
EXTT6=
EXTT7=
EXTT8=
EXTT9=
EXTT10=
EXTT11=
EXTT12=
EXTT13=
EXTT14=
EXTT15=
EXTT16=
EXTT17=
EXTT18=
EXTT19=
EXTT20=
EXTT21=
EXTT22=
EXTT23=
PLAYORDER=
